<svg xmlns="http://www.w3.org/2000/svg" xmlns:xlink="http://www.w3.org/1999/xlink" width="500" zoomAndPan="magnify" viewBox="0 0 375 374.999991" height="500" preserveAspectRatio="xMidYMid meet" version="1.0"><defs><g/></defs><rect x="-37.5" width="450" fill="#ffffff" y="-37.499999" height="449.999989" fill-opacity="1"/><rect x="-37.5" width="450" fill="#ffffff" y="-37.499999" height="449.999989" fill-opacity="1"/><rect x="-37.5" width="450" fill="#ffffff" y="-37.499999" height="449.999989" fill-opacity="1"/><g fill="#ffdc7f" fill-opacity="1"><g transform="translate(82.73715, 217.544883)"><g><path d="M 182.703125 -26.21875 C 182.941406 -26.082031 183.128906 -25.84375 183.265625 -25.5 C 183.410156 -25.15625 183.484375 -24.828125 183.484375 -24.515625 C 183.585938 -23.753906 183.160156 -23.222656 182.203125 -22.921875 C 181.253906 -22.628906 180.050781 -22.441406 178.59375 -22.359375 C 177.144531 -22.273438 175.691406 -22.234375 174.234375 -22.234375 C 172.398438 -22.234375 171.035156 -22.160156 170.140625 -22.015625 C 169.234375 -21.847656 168.703125 -21.441406 168.546875 -20.796875 C 168.390625 -20.160156 168.382812 -19.078125 168.53125 -17.546875 C 168.59375 -16.722656 168.675781 -15.738281 168.78125 -14.59375 C 169.75 1.957031 171.757812 18.367188 174.8125 34.640625 C 174.875 34.953125 174.957031 35.226562 175.0625 35.46875 C 175.207031 36.0625 175.28125 36.664062 175.28125 37.28125 C 175.132812 38.351562 174.488281 39.113281 173.34375 39.5625 C 172.207031 40.019531 171.003906 40.003906 169.734375 39.515625 C 168.472656 39.035156 167.65625 37.878906 167.28125 36.046875 C 166.832031 33.585938 166.378906 31.144531 165.921875 28.71875 C 165.160156 25.363281 164.503906 21.972656 163.953125 18.546875 C 161.984375 6.972656 160.582031 -4.644531 159.75 -16.3125 C 159.675781 -18.144531 159.367188 -19.285156 158.828125 -19.734375 C 158.296875 -20.179688 157.078125 -20.285156 155.171875 -20.046875 C 150.742188 -19.660156 146.363281 -19.210938 142.03125 -18.703125 C 129.988281 -17.035156 117.90625 -15.703125 105.78125 -14.703125 C 105.71875 -14.703125 105.648438 -14.703125 105.578125 -14.703125 C 105.441406 -14.703125 105.285156 -14.703125 105.109375 -14.703125 C 101.097656 -14.765625 98.398438 -12.738281 97.015625 -8.625 C 92.890625 2.625 87.9375 13.476562 82.15625 23.9375 C 75.6875 35.8125 67.8125 46.703125 58.53125 56.609375 C 52.050781 63.222656 44.675781 68.625 36.40625 72.8125 C 28.132812 77 19.617188 79.929688 10.859375 81.609375 C 2.097656 83.285156 -6.28125 83.726562 -14.28125 82.9375 C -22.28125 82.144531 -29.25 80.082031 -35.1875 76.75 C -41.125 73.425781 -45.425781 68.859375 -48.09375 63.046875 C -50.757812 57.234375 -51.101562 50.132812 -49.125 41.75 C -47.15625 34.132812 -43.535156 27.617188 -38.265625 22.203125 C -33.003906 16.785156 -26.832031 12.234375 -19.75 8.546875 C -12.675781 4.859375 -5.332031 1.8125 2.28125 -0.59375 C 9.894531 -3 17.097656 -5.035156 23.890625 -6.703125 C 33.859375 -9.222656 44.441406 -11.503906 55.640625 -13.546875 C 66.847656 -15.597656 77.554688 -17.054688 87.765625 -17.921875 C 90.429688 -17.984375 92.210938 -19.316406 93.109375 -21.921875 C 93.734375 -23.648438 94.425781 -25.363281 95.1875 -27.0625 C 95.5 -27.820312 95.796875 -28.53125 96.078125 -29.1875 C 97.523438 -32.71875 98.976562 -36.265625 100.4375 -39.828125 C 105.382812 -52.460938 110.710938 -65.203125 116.421875 -78.046875 C 122.140625 -90.898438 128.582031 -103.226562 135.75 -115.03125 C 142.914062 -126.832031 151.140625 -137.53125 160.421875 -147.125 C 162.773438 -149.40625 165.25 -151.601562 167.84375 -153.71875 C 169.0625 -154.726562 170.757812 -155.5 172.9375 -156.03125 C 175.113281 -156.570312 176.960938 -156.476562 178.484375 -155.75 C 180.015625 -155.019531 180.429688 -153.203125 179.734375 -150.296875 C 178.148438 -144.304688 176.785156 -138.21875 175.640625 -132.03125 C 174.492188 -125.851562 173.453125 -119.6875 172.515625 -113.53125 C 172.515625 -113.21875 172.484375 -112.90625 172.421875 -112.59375 C 170.273438 -98.601562 168.957031 -85.421875 168.46875 -73.046875 C 167.988281 -60.671875 167.78125 -47.4375 167.84375 -33.34375 C 167.84375 -31.820312 167.914062 -30.296875 168.0625 -28.765625 C 168.164062 -27.691406 168.703125 -27.125 169.671875 -27.0625 C 171.359375 -26.957031 173 -26.957031 174.59375 -27.0625 C 176.5 -27.125 178.40625 -27.125 180.3125 -27.0625 C 181.144531 -26.957031 181.941406 -26.675781 182.703125 -26.21875 Z M 87.875 -8.78125 C 88.5 -10.4375 88.554688 -11.453125 88.046875 -11.828125 C 87.546875 -12.210938 86.46875 -12.285156 84.8125 -12.046875 C 76.707031 -11.003906 68.617188 -9.832031 60.546875 -8.53125 C 52.484375 -7.238281 44.488281 -5.640625 36.5625 -3.734375 C 35.414062 -3.421875 34.238281 -3.144531 33.03125 -2.90625 C 26.414062 -1.3125 19.316406 0.5625 11.734375 2.71875 C 4.148438 4.882812 -3.222656 7.644531 -10.390625 11 C -17.554688 14.363281 -23.757812 18.554688 -29 23.578125 C -34.25 28.597656 -37.910156 34.65625 -39.984375 41.75 C -42.097656 50.582031 -41.597656 57.738281 -38.484375 63.21875 C -35.367188 68.707031 -30.457031 72.644531 -23.75 75.03125 C -17.050781 77.425781 -9.492188 78.320312 -1.078125 77.71875 C 7.328125 77.113281 15.71875 75.113281 24.09375 71.71875 C 32.476562 68.320312 39.992188 63.628906 46.640625 57.640625 C 55.910156 48.710938 63.785156 38.691406 70.265625 27.578125 C 73.765625 21.796875 76.921875 15.859375 79.734375 9.765625 C 82.554688 3.671875 85.269531 -2.507812 87.875 -8.78125 Z M 166.609375 -129.625 C 166.609375 -129.800781 166.640625 -130.023438 166.703125 -130.296875 C 166.941406 -131.546875 167.269531 -133.269531 167.6875 -135.46875 C 168.101562 -137.664062 168.382812 -139.648438 168.53125 -141.421875 C 168.769531 -142.941406 168.710938 -143.847656 168.359375 -144.140625 C 168.015625 -144.429688 167.203125 -143.816406 165.921875 -142.296875 C 165.160156 -141.398438 164.398438 -140.5 163.640625 -139.59375 C 160.734375 -136.375 157.910156 -133.050781 155.171875 -129.625 C 149.015625 -121.695312 143.269531 -112.765625 137.9375 -102.828125 C 132.601562 -92.890625 127.648438 -82.585938 123.078125 -71.921875 C 118.515625 -61.265625 114.207031 -50.878906 110.15625 -40.765625 C 108.25 -36.085938 106.378906 -31.585938 104.546875 -27.265625 C 102.953125 -23.523438 102.34375 -21.289062 102.71875 -20.5625 C 103.101562 -19.832031 104.851562 -19.75 107.96875 -20.3125 C 108.414062 -20.3125 108.953125 -20.34375 109.578125 -20.40625 C 118.960938 -21.3125 128.296875 -22.332031 137.578125 -23.46875 C 141.617188 -23.957031 145.648438 -24.425781 149.671875 -24.875 C 150.503906 -25.007812 151.300781 -25.113281 152.0625 -25.1875 C 153.445312 -25.363281 154.863281 -25.519531 156.3125 -25.65625 C 157.21875 -25.726562 157.878906 -25.992188 158.296875 -26.453125 C 158.710938 -26.921875 158.921875 -27.691406 158.921875 -28.765625 C 158.921875 -29.421875 158.921875 -30.132812 158.921875 -30.90625 C 158.921875 -31.28125 158.921875 -31.660156 158.921875 -32.046875 C 158.847656 -49.285156 159.25 -65.476562 160.125 -80.625 C 161.007812 -95.769531 163.171875 -112.101562 166.609375 -129.625 Z M 166.609375 -129.625 "/></g></g></g><path stroke-linecap="butt" transform="matrix(0.75, 0, 0, 0.75, 78.036635, 111.594374)" fill="none" stroke-linejoin="miter" d="M 243.597002 100.030424 C 243.919919 100.217924 244.175127 100.540841 244.357419 100.999174 C 244.544919 101.462716 244.638669 101.900216 244.638669 102.316883 C 244.774086 103.332508 244.211586 104.035633 242.940752 104.431466 C 241.669919 104.822091 240.065752 105.0773 238.128252 105.191883 C 236.190752 105.306466 234.248043 105.363758 232.310543 105.363758 C 229.862626 105.363758 228.039709 105.457508 226.841793 105.6398 C 225.638668 105.874175 224.935543 106.415841 224.727209 107.270008 C 224.518876 108.124175 224.508459 109.566883 224.695959 111.598133 C 224.784501 112.7023 224.904293 114.020008 225.039709 115.540842 C 226.331376 137.608552 229.00846 159.488761 233.07096 181.18668 C 233.16471 181.598138 233.279293 181.96793 233.419918 182.290846 C 233.60221 183.077305 233.69596 183.884596 233.69596 184.71793 C 233.50846 186.145013 232.659501 187.160638 231.13346 187.764805 C 229.612626 188.363763 228.008459 188.337722 226.320959 187.691888 C 224.638668 187.046055 223.539709 185.49918 223.034501 183.056471 C 222.430334 179.775221 221.831376 176.525221 221.232417 173.290846 C 220.216792 168.811679 219.341792 164.290845 218.602209 159.717928 C 215.972 144.30126 214.102209 128.811676 212.992833 113.259592 C 212.899083 110.811675 212.498042 109.285633 211.779292 108.686675 C 211.06575 108.087716 209.435542 107.947091 206.899083 108.270008 C 200.987624 108.780425 195.149082 109.379383 189.378249 110.072092 C 173.315748 112.290842 157.206371 114.066883 141.05012 115.405425 C 140.95637 115.405425 140.86262 115.405425 140.76887 115.405425 C 140.586579 115.405425 140.378245 115.405425 140.149079 115.405425 C 134.794912 115.311675 131.190745 118.0148 129.346995 123.504384 C 123.852203 138.509593 117.253244 152.978344 109.54491 166.921054 C 100.909493 182.754388 90.409492 197.275222 78.034491 210.47314 C 69.404282 219.290849 59.570948 226.493974 48.539698 232.077308 C 37.508447 237.66585 26.149071 241.577309 14.471987 243.816892 C 2.794903 246.056475 -8.376973 246.645017 -19.04364 245.582517 C -29.705099 244.520017 -38.996766 241.775225 -46.913434 237.342933 C -54.830101 232.910641 -60.564476 226.816891 -64.121768 219.061682 C -67.673852 211.306473 -68.137393 201.842931 -65.501976 190.671055 C -62.871768 180.514804 -58.048851 171.827304 -51.033226 164.603345 C -44.0176 157.379386 -35.788433 151.306469 -26.345724 146.389802 C -16.908223 141.473135 -7.111348 137.410635 3.044903 134.202301 C 13.201154 130.993968 22.805321 128.285634 31.852197 126.066884 C 45.149072 122.697092 59.258448 119.650217 74.195949 116.926259 C 89.128242 114.2023 103.404285 112.2648 117.018869 111.10855 C 120.576161 111.020008 122.951161 109.243966 124.154286 105.780425 C 124.982411 103.473133 125.909494 101.186674 126.92512 98.926257 C 127.336578 97.910632 127.732411 96.962716 128.102203 96.087716 C 130.039703 91.379382 131.977203 86.645007 133.914703 81.889798 C 140.51887 65.040839 147.628246 48.051254 155.24283 30.926253 C 162.857414 13.801252 171.445956 -2.631041 181.003248 -18.375834 C 190.555332 -34.115418 201.518874 -48.381044 213.893875 -61.167503 C 217.029292 -64.214378 220.331376 -67.141462 223.794918 -69.95917 C 225.409501 -71.297712 227.669918 -72.323754 230.581376 -73.042504 C 233.487626 -73.756046 235.956377 -73.631046 237.987627 -72.662295 C 240.018877 -71.688337 240.576169 -69.266462 239.649085 -65.391462 C 237.529293 -57.401878 235.701168 -49.292502 234.180335 -41.052918 C 232.659501 -32.813335 231.274085 -24.584167 230.024085 -16.365417 C 230.024085 -15.94875 229.97721 -15.532083 229.888668 -15.120625 C 227.024084 3.530418 225.268876 21.108544 224.623043 37.608545 C 223.977209 54.113755 223.701168 71.759589 223.794918 90.546049 C 223.794918 92.577299 223.888668 94.608549 224.070959 96.639799 C 224.211584 98.072091 224.925126 98.832507 226.216793 98.926257 C 228.47721 99.061674 230.669918 99.061674 232.794918 98.926257 C 235.336585 98.832507 237.873043 98.832507 240.41471 98.926257 C 241.518877 99.061674 242.581377 99.431466 243.597002 100.030424 Z M 117.159494 123.296051 C 117.992827 121.082509 118.070952 119.717925 117.404286 119.212717 C 116.73241 118.7023 115.289702 118.613759 113.07616 118.936675 C 102.274076 120.322092 91.492826 121.879384 80.737616 123.608551 C 69.982407 125.342926 59.31574 127.473134 48.748031 130.014801 C 47.221989 130.431468 45.654281 130.80126 44.039697 131.124176 C 35.221988 133.243968 25.758446 135.749177 15.649071 138.634593 C 5.539695 141.52001 -4.293639 145.202302 -13.850931 149.681469 C -23.403015 154.155428 -31.679058 159.74397 -38.67385 166.436679 C -45.663433 173.129387 -50.54885 181.207513 -53.319684 190.671055 C -56.132184 202.441889 -55.465517 211.988765 -51.309267 219.301265 C -47.153017 226.618974 -40.61135 231.868975 -31.679058 235.056475 C -22.746765 238.243975 -12.673848 239.431475 -1.455097 238.624183 C 9.763653 237.816892 20.956363 235.150225 32.128238 230.624183 C 43.300114 226.103349 53.31574 219.84814 62.180324 211.858557 C 74.550116 199.952306 85.055325 186.587722 93.685534 171.770012 C 98.346993 164.05647 102.560535 156.139803 106.320951 148.020011 C 110.086577 139.89501 113.695952 131.655426 117.159494 123.296051 Z M 222.133459 -37.82896 C 222.133459 -38.063335 222.180334 -38.36021 222.268876 -38.730002 C 222.591792 -40.39146 223.034501 -42.688335 223.586584 -45.620627 C 224.138668 -48.552919 224.508459 -51.193544 224.695959 -53.547711 C 225.018876 -55.578961 224.945959 -56.792503 224.487626 -57.183128 C 224.024084 -57.578961 222.940751 -56.756044 221.232417 -54.724794 C 220.216792 -53.526878 219.201167 -52.323752 218.185542 -51.125836 C 214.305334 -46.834169 210.544917 -42.401877 206.899083 -37.82896 C 198.680333 -27.261251 191.018874 -15.349792 183.909498 -2.099791 C 176.800123 11.145002 170.201164 24.879378 164.107414 39.098129 C 158.013663 53.316879 152.263663 67.165839 146.862621 80.645006 C 144.326162 86.874173 141.83137 92.879382 139.388662 98.645007 C 137.263662 103.634591 136.45637 106.60855 136.961578 107.5773 C 137.471995 108.551258 139.80012 108.665841 143.956371 107.926258 C 144.555329 107.926258 145.274079 107.879383 146.102204 107.785633 C 158.612622 106.587716 171.055331 105.223133 183.425123 103.702299 C 188.826165 103.056466 194.206374 102.431466 199.560541 101.832508 C 200.664708 101.650216 201.727208 101.509591 202.742833 101.415841 C 204.591791 101.186674 206.482416 100.978341 208.419917 100.796049 C 209.623042 100.702299 210.498042 100.342924 211.055333 99.723133 C 211.607417 99.098132 211.883458 98.072091 211.883458 96.639799 C 211.883458 95.764799 211.883458 94.816882 211.883458 93.801257 C 211.883458 93.29084 211.883458 92.785632 211.883458 92.275215 C 211.789708 69.290839 212.336583 47.697087 213.513667 27.499169 C 214.69075 7.30646 217.560542 -14.474792 222.133459 -37.82896 Z M 222.133459 -37.82896 " stroke="#feba00" stroke-width="5.318025" stroke-opacity="1" stroke-miterlimit="4"/></svg>